<mxfile host="app.diagrams.net" modified="2024-03-20T18:52:27.512Z" agent="Mozilla/5.0 (Windows NT 10.0; Win64; x64) AppleWebKit/537.36 (KHTML, like Gecko) Chrome/123.0.0.0 Safari/537.36" etag="zaUJnXAEbeSDy4EpOQdu" version="24.0.7" type="device">
  <diagram id="C5RBs43oDa-KdzZeNtuy" name="Page-1">
    <mxGraphModel dx="1909" dy="949" grid="1" gridSize="10" guides="1" tooltips="1" connect="1" arrows="1" fold="1" page="1" pageScale="1" pageWidth="2339" pageHeight="3300" math="0" shadow="0">
      <root>
        <mxCell id="WIyWlLk6GJQsqaUBKTNV-0" />
        <mxCell id="WIyWlLk6GJQsqaUBKTNV-1" parent="WIyWlLk6GJQsqaUBKTNV-0" />
        <mxCell id="8g5TzWJdzASicgmeQdo--3" value="BOOTCAMP" style="rounded=0;whiteSpace=wrap;html=1;fillColor=#dae8fc;strokeColor=#6c8ebf;" parent="WIyWlLk6GJQsqaUBKTNV-1" vertex="1">
          <mxGeometry x="810" y="590" width="120" height="60" as="geometry" />
        </mxCell>
        <mxCell id="8g5TzWJdzASicgmeQdo--4" value="&lt;u&gt;&lt;font style=&quot;font-size: 9px;&quot;&gt;Id_Bootcamp&lt;/font&gt;&lt;/u&gt;" style="ellipse;whiteSpace=wrap;html=1;" parent="WIyWlLk6GJQsqaUBKTNV-1" vertex="1">
          <mxGeometry x="644" y="383" width="60" height="40" as="geometry" />
        </mxCell>
        <mxCell id="8g5TzWJdzASicgmeQdo--6" value="&lt;font style=&quot;font-size: 9px;&quot;&gt;Id_Vertical&lt;/font&gt;" style="ellipse;whiteSpace=wrap;html=1;" parent="WIyWlLk6GJQsqaUBKTNV-1" vertex="1">
          <mxGeometry x="714" y="383" width="60" height="40" as="geometry" />
        </mxCell>
        <mxCell id="8g5TzWJdzASicgmeQdo--7" value="&lt;font style=&quot;font-size: 9px;&quot;&gt;Id_Campus&lt;/font&gt;" style="ellipse;whiteSpace=wrap;html=1;" parent="WIyWlLk6GJQsqaUBKTNV-1" vertex="1">
          <mxGeometry x="784" y="383" width="60" height="40" as="geometry" />
        </mxCell>
        <mxCell id="8g5TzWJdzASicgmeQdo--8" value="&lt;font style=&quot;font-size: 9px;&quot;&gt;Id_Promoción&lt;/font&gt;" style="ellipse;whiteSpace=wrap;html=1;" parent="WIyWlLk6GJQsqaUBKTNV-1" vertex="1">
          <mxGeometry x="854" y="383" width="60" height="40" as="geometry" />
        </mxCell>
        <mxCell id="8g5TzWJdzASicgmeQdo--9" value="&lt;font style=&quot;font-size: 9px;&quot;&gt;Id_Modalidad&lt;/font&gt;" style="ellipse;whiteSpace=wrap;html=1;" parent="WIyWlLk6GJQsqaUBKTNV-1" vertex="1">
          <mxGeometry x="924" y="383" width="60" height="40" as="geometry" />
        </mxCell>
        <mxCell id="8g5TzWJdzASicgmeQdo--29" value="" style="endArrow=none;html=1;rounded=0;entryX=0.5;entryY=1;entryDx=0;entryDy=0;exitX=1;exitY=0;exitDx=0;exitDy=0;" parent="WIyWlLk6GJQsqaUBKTNV-1" target="8g5TzWJdzASicgmeQdo--9" edge="1" source="8g5TzWJdzASicgmeQdo--3">
          <mxGeometry width="50" height="50" relative="1" as="geometry">
            <mxPoint x="930" y="370" as="sourcePoint" />
            <mxPoint x="980" y="320" as="targetPoint" />
          </mxGeometry>
        </mxCell>
        <mxCell id="8g5TzWJdzASicgmeQdo--30" value="" style="endArrow=none;html=1;rounded=0;entryX=0.5;entryY=1;entryDx=0;entryDy=0;exitX=0.75;exitY=0;exitDx=0;exitDy=0;" parent="WIyWlLk6GJQsqaUBKTNV-1" target="8g5TzWJdzASicgmeQdo--8" edge="1" source="8g5TzWJdzASicgmeQdo--3">
          <mxGeometry width="50" height="50" relative="1" as="geometry">
            <mxPoint x="900" y="370" as="sourcePoint" />
            <mxPoint x="950" y="320" as="targetPoint" />
          </mxGeometry>
        </mxCell>
        <mxCell id="8g5TzWJdzASicgmeQdo--31" value="" style="endArrow=none;html=1;rounded=0;entryX=0.5;entryY=1;entryDx=0;entryDy=0;exitX=0.5;exitY=0;exitDx=0;exitDy=0;" parent="WIyWlLk6GJQsqaUBKTNV-1" source="8g5TzWJdzASicgmeQdo--3" target="8g5TzWJdzASicgmeQdo--7" edge="1">
          <mxGeometry width="50" height="50" relative="1" as="geometry">
            <mxPoint x="860" y="370" as="sourcePoint" />
            <mxPoint x="910" y="320" as="targetPoint" />
          </mxGeometry>
        </mxCell>
        <mxCell id="8g5TzWJdzASicgmeQdo--32" value="" style="endArrow=none;html=1;rounded=0;entryX=0.5;entryY=1;entryDx=0;entryDy=0;exitX=0.331;exitY=-0.051;exitDx=0;exitDy=0;exitPerimeter=0;" parent="WIyWlLk6GJQsqaUBKTNV-1" target="8g5TzWJdzASicgmeQdo--6" edge="1" source="8g5TzWJdzASicgmeQdo--3">
          <mxGeometry width="50" height="50" relative="1" as="geometry">
            <mxPoint x="830" y="370" as="sourcePoint" />
            <mxPoint x="880" y="320" as="targetPoint" />
          </mxGeometry>
        </mxCell>
        <mxCell id="8g5TzWJdzASicgmeQdo--33" value="" style="endArrow=none;html=1;rounded=0;entryX=0.5;entryY=1;entryDx=0;entryDy=0;exitX=0;exitY=0;exitDx=0;exitDy=0;" parent="WIyWlLk6GJQsqaUBKTNV-1" target="8g5TzWJdzASicgmeQdo--4" edge="1" source="8g5TzWJdzASicgmeQdo--3">
          <mxGeometry width="50" height="50" relative="1" as="geometry">
            <mxPoint x="810" y="370" as="sourcePoint" />
            <mxPoint x="860" y="320" as="targetPoint" />
          </mxGeometry>
        </mxCell>
        <mxCell id="8g5TzWJdzASicgmeQdo--34" value="Modalidad" style="rounded=0;whiteSpace=wrap;html=1;fillColor=#e1d5e7;strokeColor=#9673a6;" parent="WIyWlLk6GJQsqaUBKTNV-1" vertex="1">
          <mxGeometry x="810" y="970" width="120" height="60" as="geometry" />
        </mxCell>
        <mxCell id="8g5TzWJdzASicgmeQdo--35" value="&lt;font size=&quot;3&quot;&gt;Tienen&lt;/font&gt;" style="rhombus;whiteSpace=wrap;html=1;" parent="WIyWlLk6GJQsqaUBKTNV-1" vertex="1">
          <mxGeometry x="830" y="830" width="80" height="80" as="geometry" />
        </mxCell>
        <mxCell id="8g5TzWJdzASicgmeQdo--36" value="" style="endArrow=none;html=1;rounded=0;entryX=0.5;entryY=1;entryDx=0;entryDy=0;exitX=0.5;exitY=0;exitDx=0;exitDy=0;" parent="WIyWlLk6GJQsqaUBKTNV-1" target="8g5TzWJdzASicgmeQdo--3" edge="1" source="8g5TzWJdzASicgmeQdo--35">
          <mxGeometry width="50" height="50" relative="1" as="geometry">
            <mxPoint x="870" y="490" as="sourcePoint" />
            <mxPoint x="920" y="440" as="targetPoint" />
          </mxGeometry>
        </mxCell>
        <mxCell id="8g5TzWJdzASicgmeQdo--37" value="" style="endArrow=none;html=1;rounded=0;entryX=0.5;entryY=1;entryDx=0;entryDy=0;exitX=0.5;exitY=0;exitDx=0;exitDy=0;" parent="WIyWlLk6GJQsqaUBKTNV-1" source="8g5TzWJdzASicgmeQdo--34" target="8g5TzWJdzASicgmeQdo--35" edge="1">
          <mxGeometry width="50" height="50" relative="1" as="geometry">
            <mxPoint x="900" y="930" as="sourcePoint" />
            <mxPoint x="870" y="920" as="targetPoint" />
          </mxGeometry>
        </mxCell>
        <mxCell id="8g5TzWJdzASicgmeQdo--39" value="&lt;font style=&quot;font-size: 9px;&quot;&gt;&lt;u&gt;Id_modalidad&lt;/u&gt;&lt;/font&gt;" style="ellipse;whiteSpace=wrap;html=1;" parent="WIyWlLk6GJQsqaUBKTNV-1" vertex="1">
          <mxGeometry x="805" y="1100" width="60" height="40" as="geometry" />
        </mxCell>
        <mxCell id="8g5TzWJdzASicgmeQdo--40" value="&lt;font style=&quot;font-size: 9px;&quot;&gt;Modalidad&lt;/font&gt;" style="ellipse;whiteSpace=wrap;html=1;" parent="WIyWlLk6GJQsqaUBKTNV-1" vertex="1">
          <mxGeometry x="875" y="1100" width="60" height="40" as="geometry" />
        </mxCell>
        <mxCell id="8g5TzWJdzASicgmeQdo--41" value="" style="endArrow=none;html=1;rounded=0;exitX=0.5;exitY=0;exitDx=0;exitDy=0;" parent="WIyWlLk6GJQsqaUBKTNV-1" source="8g5TzWJdzASicgmeQdo--39" edge="1">
          <mxGeometry width="50" height="50" relative="1" as="geometry">
            <mxPoint x="810" y="1080" as="sourcePoint" />
            <mxPoint x="860" y="1030" as="targetPoint" />
          </mxGeometry>
        </mxCell>
        <mxCell id="8g5TzWJdzASicgmeQdo--42" value="" style="endArrow=none;html=1;rounded=0;exitX=0.5;exitY=0;exitDx=0;exitDy=0;" parent="WIyWlLk6GJQsqaUBKTNV-1" source="8g5TzWJdzASicgmeQdo--40" target="8g5TzWJdzASicgmeQdo--34" edge="1">
          <mxGeometry width="50" height="50" relative="1" as="geometry">
            <mxPoint x="900" y="1080" as="sourcePoint" />
            <mxPoint x="950" y="1030" as="targetPoint" />
          </mxGeometry>
        </mxCell>
        <mxCell id="8g5TzWJdzASicgmeQdo--43" value="PROMOCIÓN" style="rounded=0;whiteSpace=wrap;html=1;fillColor=#ffe6cc;strokeColor=#d79b00;" parent="WIyWlLk6GJQsqaUBKTNV-1" vertex="1">
          <mxGeometry x="430" y="835" width="120" height="60" as="geometry" />
        </mxCell>
        <mxCell id="8g5TzWJdzASicgmeQdo--44" value="Se&amp;nbsp;&lt;div&gt;Realiza&lt;/div&gt;" style="rhombus;whiteSpace=wrap;html=1;" parent="WIyWlLk6GJQsqaUBKTNV-1" vertex="1">
          <mxGeometry x="620" y="825" width="80" height="80" as="geometry" />
        </mxCell>
        <mxCell id="8g5TzWJdzASicgmeQdo--45" value="" style="endArrow=none;html=1;rounded=0;entryX=0.25;entryY=1;entryDx=0;entryDy=0;exitX=1;exitY=0.5;exitDx=0;exitDy=0;" parent="WIyWlLk6GJQsqaUBKTNV-1" source="8g5TzWJdzASicgmeQdo--44" target="8g5TzWJdzASicgmeQdo--3" edge="1">
          <mxGeometry width="50" height="50" relative="1" as="geometry">
            <mxPoint x="694.9999999999998" y="599" as="sourcePoint" />
            <mxPoint x="784.9999999999998" y="599" as="targetPoint" />
          </mxGeometry>
        </mxCell>
        <mxCell id="8g5TzWJdzASicgmeQdo--46" value="" style="endArrow=none;html=1;rounded=0;entryX=0;entryY=0.5;entryDx=0;entryDy=0;" parent="WIyWlLk6GJQsqaUBKTNV-1" edge="1">
          <mxGeometry width="50" height="50" relative="1" as="geometry">
            <mxPoint x="550" y="865" as="sourcePoint" />
            <mxPoint x="619.9999999999998" y="865" as="targetPoint" />
          </mxGeometry>
        </mxCell>
        <mxCell id="8g5TzWJdzASicgmeQdo--47" value="&lt;u&gt;&lt;font style=&quot;font-size: 9px;&quot;&gt;Id_Promoción&lt;/font&gt;&lt;/u&gt;" style="ellipse;whiteSpace=wrap;html=1;" parent="WIyWlLk6GJQsqaUBKTNV-1" vertex="1">
          <mxGeometry x="280" y="785" width="60" height="40" as="geometry" />
        </mxCell>
        <mxCell id="8g5TzWJdzASicgmeQdo--48" value="&lt;font style=&quot;font-size: 9px;&quot;&gt;Promoción&lt;/font&gt;" style="ellipse;whiteSpace=wrap;html=1;" parent="WIyWlLk6GJQsqaUBKTNV-1" vertex="1">
          <mxGeometry x="280" y="845" width="60" height="40" as="geometry" />
        </mxCell>
        <mxCell id="8g5TzWJdzASicgmeQdo--49" value="&lt;font style=&quot;font-size: 9px;&quot;&gt;Fecha comienzo&lt;/font&gt;" style="ellipse;whiteSpace=wrap;html=1;" parent="WIyWlLk6GJQsqaUBKTNV-1" vertex="1">
          <mxGeometry x="280" y="905" width="60" height="40" as="geometry" />
        </mxCell>
        <mxCell id="8g5TzWJdzASicgmeQdo--50" value="" style="endArrow=none;html=1;rounded=0;entryX=0;entryY=0.25;entryDx=0;entryDy=0;" parent="WIyWlLk6GJQsqaUBKTNV-1" target="8g5TzWJdzASicgmeQdo--43" edge="1">
          <mxGeometry width="50" height="50" relative="1" as="geometry">
            <mxPoint x="340" y="805" as="sourcePoint" />
            <mxPoint x="390" y="755" as="targetPoint" />
          </mxGeometry>
        </mxCell>
        <mxCell id="8g5TzWJdzASicgmeQdo--51" value="" style="endArrow=none;html=1;rounded=0;exitX=1;exitY=0.5;exitDx=0;exitDy=0;entryX=0;entryY=0.5;entryDx=0;entryDy=0;" parent="WIyWlLk6GJQsqaUBKTNV-1" source="8g5TzWJdzASicgmeQdo--48" target="8g5TzWJdzASicgmeQdo--43" edge="1">
          <mxGeometry width="50" height="50" relative="1" as="geometry">
            <mxPoint x="440" y="895" as="sourcePoint" />
            <mxPoint x="490" y="845" as="targetPoint" />
          </mxGeometry>
        </mxCell>
        <mxCell id="8g5TzWJdzASicgmeQdo--52" value="" style="endArrow=none;html=1;rounded=0;exitX=1;exitY=0.5;exitDx=0;exitDy=0;entryX=0;entryY=0.75;entryDx=0;entryDy=0;" parent="WIyWlLk6GJQsqaUBKTNV-1" source="8g5TzWJdzASicgmeQdo--49" target="8g5TzWJdzASicgmeQdo--43" edge="1">
          <mxGeometry width="50" height="50" relative="1" as="geometry">
            <mxPoint x="390" y="945" as="sourcePoint" />
            <mxPoint x="440" y="895" as="targetPoint" />
          </mxGeometry>
        </mxCell>
        <mxCell id="8g5TzWJdzASicgmeQdo--53" value="CAMPUS" style="rounded=0;whiteSpace=wrap;html=1;fillColor=#d5e8d4;strokeColor=#82b366;" parent="WIyWlLk6GJQsqaUBKTNV-1" vertex="1">
          <mxGeometry x="430" y="593" width="120" height="60" as="geometry" />
        </mxCell>
        <mxCell id="8g5TzWJdzASicgmeQdo--54" value="Dentro&lt;div&gt;De&lt;/div&gt;" style="rhombus;whiteSpace=wrap;html=1;" parent="WIyWlLk6GJQsqaUBKTNV-1" vertex="1">
          <mxGeometry x="620" y="583" width="80" height="80" as="geometry" />
        </mxCell>
        <mxCell id="8g5TzWJdzASicgmeQdo--56" value="" style="endArrow=none;html=1;rounded=0;entryX=0;entryY=0.5;entryDx=0;entryDy=0;" parent="WIyWlLk6GJQsqaUBKTNV-1" target="8g5TzWJdzASicgmeQdo--54" edge="1">
          <mxGeometry width="50" height="50" relative="1" as="geometry">
            <mxPoint x="550" y="623" as="sourcePoint" />
            <mxPoint x="600" y="573" as="targetPoint" />
          </mxGeometry>
        </mxCell>
        <mxCell id="8g5TzWJdzASicgmeQdo--57" value="&lt;u&gt;&lt;font style=&quot;font-size: 9px;&quot;&gt;Id_Campus&lt;/font&gt;&lt;/u&gt;" style="ellipse;whiteSpace=wrap;html=1;" parent="WIyWlLk6GJQsqaUBKTNV-1" vertex="1">
          <mxGeometry x="280" y="543" width="60" height="40" as="geometry" />
        </mxCell>
        <mxCell id="8g5TzWJdzASicgmeQdo--58" value="&lt;font style=&quot;font-size: 9px;&quot;&gt;Campus&lt;/font&gt;" style="ellipse;whiteSpace=wrap;html=1;" parent="WIyWlLk6GJQsqaUBKTNV-1" vertex="1">
          <mxGeometry x="280" y="603" width="60" height="40" as="geometry" />
        </mxCell>
        <mxCell id="8g5TzWJdzASicgmeQdo--59" value="&lt;font style=&quot;font-size: 9px;&quot;&gt;Dirección&lt;/font&gt;" style="ellipse;whiteSpace=wrap;html=1;" parent="WIyWlLk6GJQsqaUBKTNV-1" vertex="1">
          <mxGeometry x="280" y="663" width="60" height="40" as="geometry" />
        </mxCell>
        <mxCell id="8g5TzWJdzASicgmeQdo--60" value="" style="endArrow=none;html=1;rounded=0;entryX=0;entryY=0.25;entryDx=0;entryDy=0;" parent="WIyWlLk6GJQsqaUBKTNV-1" target="8g5TzWJdzASicgmeQdo--53" edge="1">
          <mxGeometry width="50" height="50" relative="1" as="geometry">
            <mxPoint x="340" y="563" as="sourcePoint" />
            <mxPoint x="390" y="513" as="targetPoint" />
          </mxGeometry>
        </mxCell>
        <mxCell id="8g5TzWJdzASicgmeQdo--61" value="" style="endArrow=none;html=1;rounded=0;exitX=1;exitY=0.5;exitDx=0;exitDy=0;entryX=0;entryY=0.5;entryDx=0;entryDy=0;" parent="WIyWlLk6GJQsqaUBKTNV-1" source="8g5TzWJdzASicgmeQdo--58" target="8g5TzWJdzASicgmeQdo--53" edge="1">
          <mxGeometry width="50" height="50" relative="1" as="geometry">
            <mxPoint x="440" y="653" as="sourcePoint" />
            <mxPoint x="490" y="603" as="targetPoint" />
          </mxGeometry>
        </mxCell>
        <mxCell id="8g5TzWJdzASicgmeQdo--62" value="" style="endArrow=none;html=1;rounded=0;exitX=1;exitY=0.5;exitDx=0;exitDy=0;entryX=0;entryY=0.75;entryDx=0;entryDy=0;" parent="WIyWlLk6GJQsqaUBKTNV-1" source="8g5TzWJdzASicgmeQdo--59" target="8g5TzWJdzASicgmeQdo--53" edge="1">
          <mxGeometry width="50" height="50" relative="1" as="geometry">
            <mxPoint x="390" y="703" as="sourcePoint" />
            <mxPoint x="440" y="653" as="targetPoint" />
          </mxGeometry>
        </mxCell>
        <mxCell id="8g5TzWJdzASicgmeQdo--63" value="" style="endArrow=none;html=1;rounded=0;exitX=0;exitY=0.5;exitDx=0;exitDy=0;entryX=1;entryY=0.5;entryDx=0;entryDy=0;" parent="WIyWlLk6GJQsqaUBKTNV-1" source="8g5TzWJdzASicgmeQdo--3" target="8g5TzWJdzASicgmeQdo--54" edge="1">
          <mxGeometry width="50" height="50" relative="1" as="geometry">
            <mxPoint x="595" y="510" as="sourcePoint" />
            <mxPoint x="645" y="460" as="targetPoint" />
          </mxGeometry>
        </mxCell>
        <mxCell id="8g5TzWJdzASicgmeQdo--64" value="CLAUSTRO" style="rounded=0;whiteSpace=wrap;html=1;fillColor=#f8cecc;strokeColor=#b85450;" parent="WIyWlLk6GJQsqaUBKTNV-1" vertex="1">
          <mxGeometry x="1249" y="910" width="120" height="60" as="geometry" />
        </mxCell>
        <mxCell id="8g5TzWJdzASicgmeQdo--65" value="Compuesto&lt;div&gt;Por&lt;/div&gt;" style="rhombus;whiteSpace=wrap;html=1;" parent="WIyWlLk6GJQsqaUBKTNV-1" vertex="1">
          <mxGeometry x="1069" y="900" width="80" height="80" as="geometry" />
        </mxCell>
        <mxCell id="8g5TzWJdzASicgmeQdo--66" value="" style="endArrow=none;html=1;rounded=0;entryX=1;entryY=0.5;entryDx=0;entryDy=0;exitX=0;exitY=0.5;exitDx=0;exitDy=0;" parent="WIyWlLk6GJQsqaUBKTNV-1" source="8g5TzWJdzASicgmeQdo--64" target="8g5TzWJdzASicgmeQdo--65" edge="1">
          <mxGeometry width="50" height="50" relative="1" as="geometry">
            <mxPoint x="1369" y="940" as="sourcePoint" />
            <mxPoint x="1419" y="890" as="targetPoint" />
          </mxGeometry>
        </mxCell>
        <mxCell id="8g5TzWJdzASicgmeQdo--67" value="&lt;u&gt;&lt;font style=&quot;font-size: 9px;&quot;&gt;Id_Claustro&lt;/font&gt;&lt;/u&gt;" style="ellipse;whiteSpace=wrap;html=1;" parent="WIyWlLk6GJQsqaUBKTNV-1" vertex="1">
          <mxGeometry x="1449" y="860" width="60" height="40" as="geometry" />
        </mxCell>
        <mxCell id="8g5TzWJdzASicgmeQdo--68" value="&lt;font style=&quot;font-size: 9px;&quot;&gt;Id_Profesor&lt;/font&gt;" style="ellipse;whiteSpace=wrap;html=1;" parent="WIyWlLk6GJQsqaUBKTNV-1" vertex="1">
          <mxGeometry x="1449" y="920" width="60" height="40" as="geometry" />
        </mxCell>
        <mxCell id="8g5TzWJdzASicgmeQdo--69" value="&lt;font style=&quot;font-size: 9px;&quot;&gt;Id_Bootcamp&lt;/font&gt;" style="ellipse;whiteSpace=wrap;html=1;" parent="WIyWlLk6GJQsqaUBKTNV-1" vertex="1">
          <mxGeometry x="1449" y="980" width="60" height="40" as="geometry" />
        </mxCell>
        <mxCell id="8g5TzWJdzASicgmeQdo--70" value="" style="endArrow=none;html=1;rounded=0;entryX=1;entryY=0;entryDx=0;entryDy=0;exitX=0;exitY=0.5;exitDx=0;exitDy=0;" parent="WIyWlLk6GJQsqaUBKTNV-1" source="8g5TzWJdzASicgmeQdo--67" target="8g5TzWJdzASicgmeQdo--64" edge="1">
          <mxGeometry width="50" height="50" relative="1" as="geometry">
            <mxPoint x="1159" y="880" as="sourcePoint" />
            <mxPoint x="1209" y="830" as="targetPoint" />
          </mxGeometry>
        </mxCell>
        <mxCell id="8g5TzWJdzASicgmeQdo--71" value="" style="endArrow=none;html=1;rounded=0;entryX=1;entryY=0.5;entryDx=0;entryDy=0;exitX=0;exitY=0.5;exitDx=0;exitDy=0;" parent="WIyWlLk6GJQsqaUBKTNV-1" source="8g5TzWJdzASicgmeQdo--68" target="8g5TzWJdzASicgmeQdo--64" edge="1">
          <mxGeometry width="50" height="50" relative="1" as="geometry">
            <mxPoint x="1439" y="940" as="sourcePoint" />
            <mxPoint x="1309" y="920" as="targetPoint" />
          </mxGeometry>
        </mxCell>
        <mxCell id="8g5TzWJdzASicgmeQdo--72" value="" style="endArrow=none;html=1;rounded=0;exitX=0;exitY=0.5;exitDx=0;exitDy=0;entryX=1;entryY=1;entryDx=0;entryDy=0;" parent="WIyWlLk6GJQsqaUBKTNV-1" source="8g5TzWJdzASicgmeQdo--69" target="8g5TzWJdzASicgmeQdo--64" edge="1">
          <mxGeometry width="50" height="50" relative="1" as="geometry">
            <mxPoint x="1209" y="1020" as="sourcePoint" />
            <mxPoint x="1259" y="970" as="targetPoint" />
          </mxGeometry>
        </mxCell>
        <mxCell id="8g5TzWJdzASicgmeQdo--73" value="PROFESORES" style="rounded=0;whiteSpace=wrap;html=1;fillColor=#ffcd28;gradientColor=#ffa500;strokeColor=#d79b00;" parent="WIyWlLk6GJQsqaUBKTNV-1" vertex="1">
          <mxGeometry x="1249" y="1260" width="120" height="60" as="geometry" />
        </mxCell>
        <mxCell id="8g5TzWJdzASicgmeQdo--74" value="Formado&lt;div&gt;Por&lt;/div&gt;" style="rhombus;whiteSpace=wrap;html=1;" parent="WIyWlLk6GJQsqaUBKTNV-1" vertex="1">
          <mxGeometry x="1270" y="1100" width="80" height="80" as="geometry" />
        </mxCell>
        <mxCell id="8g5TzWJdzASicgmeQdo--75" value="" style="endArrow=none;html=1;rounded=0;entryX=0.5;entryY=1;entryDx=0;entryDy=0;exitX=0.5;exitY=0;exitDx=0;exitDy=0;" parent="WIyWlLk6GJQsqaUBKTNV-1" source="8g5TzWJdzASicgmeQdo--73" target="8g5TzWJdzASicgmeQdo--74" edge="1">
          <mxGeometry width="50" height="50" relative="1" as="geometry">
            <mxPoint x="1570" y="1060" as="sourcePoint" />
            <mxPoint x="1620" y="1010" as="targetPoint" />
          </mxGeometry>
        </mxCell>
        <mxCell id="8g5TzWJdzASicgmeQdo--76" value="&lt;u&gt;&lt;font style=&quot;font-size: 9px;&quot;&gt;Id_Profesor&lt;/font&gt;&lt;/u&gt;" style="ellipse;whiteSpace=wrap;html=1;" parent="WIyWlLk6GJQsqaUBKTNV-1" vertex="1">
          <mxGeometry x="1189" y="1380" width="60" height="40" as="geometry" />
        </mxCell>
        <mxCell id="8g5TzWJdzASicgmeQdo--77" value="&lt;font style=&quot;font-size: 9px;&quot;&gt;Nombre&lt;/font&gt;" style="ellipse;whiteSpace=wrap;html=1;" parent="WIyWlLk6GJQsqaUBKTNV-1" vertex="1">
          <mxGeometry x="1279" y="1380" width="60" height="40" as="geometry" />
        </mxCell>
        <mxCell id="8g5TzWJdzASicgmeQdo--78" value="&lt;div&gt;&lt;font style=&quot;font-size: 9px;&quot;&gt;Id_Rol&lt;/font&gt;&lt;/div&gt;" style="ellipse;whiteSpace=wrap;html=1;" parent="WIyWlLk6GJQsqaUBKTNV-1" vertex="1">
          <mxGeometry x="1360" y="1380" width="60" height="40" as="geometry" />
        </mxCell>
        <mxCell id="8g5TzWJdzASicgmeQdo--79" value="" style="endArrow=none;html=1;rounded=0;entryX=0;entryY=1;entryDx=0;entryDy=0;exitX=0.5;exitY=0;exitDx=0;exitDy=0;" parent="WIyWlLk6GJQsqaUBKTNV-1" source="8g5TzWJdzASicgmeQdo--76" target="8g5TzWJdzASicgmeQdo--73" edge="1">
          <mxGeometry width="50" height="50" relative="1" as="geometry">
            <mxPoint x="1360" y="1090" as="sourcePoint" />
            <mxPoint x="1410" y="1040" as="targetPoint" />
          </mxGeometry>
        </mxCell>
        <mxCell id="8g5TzWJdzASicgmeQdo--80" value="" style="endArrow=none;html=1;rounded=0;entryX=0.5;entryY=1;entryDx=0;entryDy=0;exitX=0.5;exitY=0;exitDx=0;exitDy=0;" parent="WIyWlLk6GJQsqaUBKTNV-1" source="8g5TzWJdzASicgmeQdo--77" target="8g5TzWJdzASicgmeQdo--73" edge="1">
          <mxGeometry width="50" height="50" relative="1" as="geometry">
            <mxPoint x="1640" y="1150" as="sourcePoint" />
            <mxPoint x="1510" y="1130" as="targetPoint" />
          </mxGeometry>
        </mxCell>
        <mxCell id="8g5TzWJdzASicgmeQdo--81" value="" style="endArrow=none;html=1;rounded=0;exitX=0.5;exitY=0;exitDx=0;exitDy=0;entryX=1;entryY=1;entryDx=0;entryDy=0;" parent="WIyWlLk6GJQsqaUBKTNV-1" source="8g5TzWJdzASicgmeQdo--78" target="8g5TzWJdzASicgmeQdo--73" edge="1">
          <mxGeometry width="50" height="50" relative="1" as="geometry">
            <mxPoint x="1410" y="1230" as="sourcePoint" />
            <mxPoint x="1460" y="1180" as="targetPoint" />
          </mxGeometry>
        </mxCell>
        <mxCell id="8g5TzWJdzASicgmeQdo--82" value="ROLES" style="rounded=0;whiteSpace=wrap;html=1;fillColor=#e6d0de;gradientColor=#d5739d;strokeColor=#996185;" parent="WIyWlLk6GJQsqaUBKTNV-1" vertex="1">
          <mxGeometry x="1671" y="1259" width="120" height="60" as="geometry" />
        </mxCell>
        <mxCell id="8g5TzWJdzASicgmeQdo--83" value="Asignado&lt;div&gt;A&lt;/div&gt;" style="rhombus;whiteSpace=wrap;html=1;" parent="WIyWlLk6GJQsqaUBKTNV-1" vertex="1">
          <mxGeometry x="1511" y="1249" width="80" height="80" as="geometry" />
        </mxCell>
        <mxCell id="8g5TzWJdzASicgmeQdo--84" value="" style="endArrow=none;html=1;rounded=0;entryX=1;entryY=0.5;entryDx=0;entryDy=0;exitX=0;exitY=0.5;exitDx=0;exitDy=0;" parent="WIyWlLk6GJQsqaUBKTNV-1" source="8g5TzWJdzASicgmeQdo--82" target="8g5TzWJdzASicgmeQdo--83" edge="1">
          <mxGeometry width="50" height="50" relative="1" as="geometry">
            <mxPoint x="1821" y="1299" as="sourcePoint" />
            <mxPoint x="1871" y="1249" as="targetPoint" />
          </mxGeometry>
        </mxCell>
        <mxCell id="8g5TzWJdzASicgmeQdo--85" value="&lt;u&gt;&lt;font style=&quot;font-size: 9px;&quot;&gt;Id_Rol&lt;/font&gt;&lt;/u&gt;" style="ellipse;whiteSpace=wrap;html=1;" parent="WIyWlLk6GJQsqaUBKTNV-1" vertex="1">
          <mxGeometry x="1891" y="1239" width="60" height="40" as="geometry" />
        </mxCell>
        <mxCell id="8g5TzWJdzASicgmeQdo--86" value="&lt;div&gt;&lt;font style=&quot;font-size: 9px;&quot;&gt;Rol&lt;/font&gt;&lt;/div&gt;" style="ellipse;whiteSpace=wrap;html=1;" parent="WIyWlLk6GJQsqaUBKTNV-1" vertex="1">
          <mxGeometry x="1891" y="1291" width="60" height="40" as="geometry" />
        </mxCell>
        <mxCell id="8g5TzWJdzASicgmeQdo--88" value="" style="endArrow=none;html=1;rounded=0;entryX=1;entryY=0.25;entryDx=0;entryDy=0;exitX=0.019;exitY=0.655;exitDx=0;exitDy=0;exitPerimeter=0;" parent="WIyWlLk6GJQsqaUBKTNV-1" source="8g5TzWJdzASicgmeQdo--85" target="8g5TzWJdzASicgmeQdo--82" edge="1">
          <mxGeometry width="50" height="50" relative="1" as="geometry">
            <mxPoint x="1891" y="1259" as="sourcePoint" />
            <mxPoint x="1661" y="1189" as="targetPoint" />
          </mxGeometry>
        </mxCell>
        <mxCell id="8g5TzWJdzASicgmeQdo--89" value="" style="endArrow=none;html=1;rounded=0;entryX=1;entryY=0.75;entryDx=0;entryDy=0;exitX=0;exitY=0.5;exitDx=0;exitDy=0;" parent="WIyWlLk6GJQsqaUBKTNV-1" source="8g5TzWJdzASicgmeQdo--86" target="8g5TzWJdzASicgmeQdo--82" edge="1">
          <mxGeometry width="50" height="50" relative="1" as="geometry">
            <mxPoint x="1891" y="1309" as="sourcePoint" />
            <mxPoint x="1761" y="1279" as="targetPoint" />
          </mxGeometry>
        </mxCell>
        <mxCell id="8g5TzWJdzASicgmeQdo--91" value="&lt;div&gt;ALUMNO&lt;/div&gt;" style="rounded=0;whiteSpace=wrap;html=1;fillColor=#bac8d3;strokeColor=#23445d;" parent="WIyWlLk6GJQsqaUBKTNV-1" vertex="1">
          <mxGeometry x="1250" y="664.5" width="120" height="60" as="geometry" />
        </mxCell>
        <mxCell id="8g5TzWJdzASicgmeQdo--92" value="Se&amp;nbsp;&lt;div&gt;Inscriben&lt;/div&gt;" style="rhombus;whiteSpace=wrap;html=1;" parent="WIyWlLk6GJQsqaUBKTNV-1" vertex="1">
          <mxGeometry x="1070" y="654.5" width="80" height="80" as="geometry" />
        </mxCell>
        <mxCell id="8g5TzWJdzASicgmeQdo--93" value="" style="endArrow=none;html=1;rounded=0;entryX=1;entryY=0.5;entryDx=0;entryDy=0;exitX=0;exitY=0.5;exitDx=0;exitDy=0;" parent="WIyWlLk6GJQsqaUBKTNV-1" source="8g5TzWJdzASicgmeQdo--91" target="8g5TzWJdzASicgmeQdo--92" edge="1">
          <mxGeometry width="50" height="50" relative="1" as="geometry">
            <mxPoint x="1370" y="694.5" as="sourcePoint" />
            <mxPoint x="1420" y="644.5" as="targetPoint" />
          </mxGeometry>
        </mxCell>
        <mxCell id="8g5TzWJdzASicgmeQdo--94" value="&lt;u&gt;&lt;font style=&quot;font-size: 9px;&quot;&gt;Id_Alumno&lt;/font&gt;&lt;/u&gt;" style="ellipse;whiteSpace=wrap;html=1;" parent="WIyWlLk6GJQsqaUBKTNV-1" vertex="1">
          <mxGeometry x="1450" y="614.5" width="60" height="40" as="geometry" />
        </mxCell>
        <mxCell id="8g5TzWJdzASicgmeQdo--95" value="&lt;font style=&quot;font-size: 9px;&quot;&gt;Alumno&lt;/font&gt;" style="ellipse;whiteSpace=wrap;html=1;" parent="WIyWlLk6GJQsqaUBKTNV-1" vertex="1">
          <mxGeometry x="1450" y="659.5" width="60" height="40" as="geometry" />
        </mxCell>
        <mxCell id="8g5TzWJdzASicgmeQdo--96" value="&lt;font style=&quot;font-size: 9px;&quot;&gt;Email&lt;/font&gt;" style="ellipse;whiteSpace=wrap;html=1;" parent="WIyWlLk6GJQsqaUBKTNV-1" vertex="1">
          <mxGeometry x="1450" y="704.5" width="60" height="40" as="geometry" />
        </mxCell>
        <mxCell id="8g5TzWJdzASicgmeQdo--97" value="" style="endArrow=none;html=1;rounded=0;entryX=1;entryY=0;entryDx=0;entryDy=0;exitX=0;exitY=0.5;exitDx=0;exitDy=0;" parent="WIyWlLk6GJQsqaUBKTNV-1" source="8g5TzWJdzASicgmeQdo--94" target="8g5TzWJdzASicgmeQdo--91" edge="1">
          <mxGeometry width="50" height="50" relative="1" as="geometry">
            <mxPoint x="1440" y="604.5" as="sourcePoint" />
            <mxPoint x="1490" y="554.5" as="targetPoint" />
          </mxGeometry>
        </mxCell>
        <mxCell id="8g5TzWJdzASicgmeQdo--98" value="" style="endArrow=none;html=1;rounded=0;entryX=1.006;entryY=0.197;entryDx=0;entryDy=0;exitX=0;exitY=0.5;exitDx=0;exitDy=0;entryPerimeter=0;" parent="WIyWlLk6GJQsqaUBKTNV-1" source="8g5TzWJdzASicgmeQdo--95" target="8g5TzWJdzASicgmeQdo--91" edge="1">
          <mxGeometry width="50" height="50" relative="1" as="geometry">
            <mxPoint x="1440" y="694.5" as="sourcePoint" />
            <mxPoint x="1310" y="674.5" as="targetPoint" />
          </mxGeometry>
        </mxCell>
        <mxCell id="8g5TzWJdzASicgmeQdo--99" value="" style="endArrow=none;html=1;rounded=0;exitX=0;exitY=0.5;exitDx=0;exitDy=0;entryX=1;entryY=0.5;entryDx=0;entryDy=0;" parent="WIyWlLk6GJQsqaUBKTNV-1" source="8g5TzWJdzASicgmeQdo--96" target="8g5TzWJdzASicgmeQdo--91" edge="1">
          <mxGeometry width="50" height="50" relative="1" as="geometry">
            <mxPoint x="1210" y="774.5" as="sourcePoint" />
            <mxPoint x="1260" y="724.5" as="targetPoint" />
            <Array as="points" />
          </mxGeometry>
        </mxCell>
        <mxCell id="8g5TzWJdzASicgmeQdo--100" value="&lt;font style=&quot;font-size: 9px;&quot;&gt;Id_Bootcamp&lt;/font&gt;" style="ellipse;whiteSpace=wrap;html=1;" parent="WIyWlLk6GJQsqaUBKTNV-1" vertex="1">
          <mxGeometry x="1450" y="750.5" width="60" height="40" as="geometry" />
        </mxCell>
        <mxCell id="8g5TzWJdzASicgmeQdo--101" value="&lt;font style=&quot;font-size: 8px;&quot;&gt;Post_Bootcamp&lt;/font&gt;" style="ellipse;whiteSpace=wrap;html=1;" parent="WIyWlLk6GJQsqaUBKTNV-1" vertex="1">
          <mxGeometry x="1451" y="795.5" width="60" height="40" as="geometry" />
        </mxCell>
        <mxCell id="8g5TzWJdzASicgmeQdo--102" value="" style="endArrow=none;html=1;rounded=0;entryX=0.09;entryY=0.251;entryDx=0;entryDy=0;entryPerimeter=0;exitX=1;exitY=0.75;exitDx=0;exitDy=0;" parent="WIyWlLk6GJQsqaUBKTNV-1" source="8g5TzWJdzASicgmeQdo--91" target="8g5TzWJdzASicgmeQdo--100" edge="1">
          <mxGeometry width="50" height="50" relative="1" as="geometry">
            <mxPoint x="1350" y="754.5" as="sourcePoint" />
            <mxPoint x="1400" y="704.5" as="targetPoint" />
          </mxGeometry>
        </mxCell>
        <mxCell id="8g5TzWJdzASicgmeQdo--103" value="" style="endArrow=none;html=1;rounded=0;entryX=0.043;entryY=0.3;entryDx=0;entryDy=0;entryPerimeter=0;exitX=1;exitY=1;exitDx=0;exitDy=0;" parent="WIyWlLk6GJQsqaUBKTNV-1" source="8g5TzWJdzASicgmeQdo--91" target="8g5TzWJdzASicgmeQdo--101" edge="1">
          <mxGeometry width="50" height="50" relative="1" as="geometry">
            <mxPoint x="1350" y="754.5" as="sourcePoint" />
            <mxPoint x="1400" y="704.5" as="targetPoint" />
          </mxGeometry>
        </mxCell>
        <mxCell id="8g5TzWJdzASicgmeQdo--104" value="VERTICAL" style="rounded=0;whiteSpace=wrap;html=1;fillColor=#ffcd28;gradientColor=#ffa500;strokeColor=#d79b00;" parent="WIyWlLk6GJQsqaUBKTNV-1" vertex="1">
          <mxGeometry x="1250" y="380" width="120" height="60" as="geometry" />
        </mxCell>
        <mxCell id="8g5TzWJdzASicgmeQdo--105" value="Cursa" style="rhombus;whiteSpace=wrap;html=1;" parent="WIyWlLk6GJQsqaUBKTNV-1" vertex="1">
          <mxGeometry x="1070" y="370" width="80" height="80" as="geometry" />
        </mxCell>
        <mxCell id="8g5TzWJdzASicgmeQdo--106" value="" style="endArrow=none;html=1;rounded=0;entryX=1;entryY=0.5;entryDx=0;entryDy=0;exitX=0;exitY=0.5;exitDx=0;exitDy=0;" parent="WIyWlLk6GJQsqaUBKTNV-1" source="8g5TzWJdzASicgmeQdo--104" target="8g5TzWJdzASicgmeQdo--105" edge="1">
          <mxGeometry width="50" height="50" relative="1" as="geometry">
            <mxPoint x="1370" y="410" as="sourcePoint" />
            <mxPoint x="1420" y="360" as="targetPoint" />
          </mxGeometry>
        </mxCell>
        <mxCell id="8g5TzWJdzASicgmeQdo--107" value="&lt;font size=&quot;1&quot;&gt;&lt;u&gt;&lt;font style=&quot;font-size: 9px;&quot;&gt;Id_Vertical&lt;/font&gt;&lt;/u&gt;&lt;/font&gt;" style="ellipse;whiteSpace=wrap;html=1;" parent="WIyWlLk6GJQsqaUBKTNV-1" vertex="1">
          <mxGeometry x="1450" y="330" width="60" height="40" as="geometry" />
        </mxCell>
        <mxCell id="8g5TzWJdzASicgmeQdo--108" value="&lt;font style=&quot;font-size: 9px;&quot;&gt;Vertical&lt;/font&gt;" style="ellipse;whiteSpace=wrap;html=1;" parent="WIyWlLk6GJQsqaUBKTNV-1" vertex="1">
          <mxGeometry x="1450" y="390" width="60" height="40" as="geometry" />
        </mxCell>
        <mxCell id="8g5TzWJdzASicgmeQdo--109" value="" style="endArrow=none;html=1;rounded=0;entryX=1;entryY=0;entryDx=0;entryDy=0;exitX=0;exitY=0.5;exitDx=0;exitDy=0;" parent="WIyWlLk6GJQsqaUBKTNV-1" source="8g5TzWJdzASicgmeQdo--107" target="8g5TzWJdzASicgmeQdo--104" edge="1">
          <mxGeometry width="50" height="50" relative="1" as="geometry">
            <mxPoint x="1160" y="350" as="sourcePoint" />
            <mxPoint x="1210" y="300" as="targetPoint" />
          </mxGeometry>
        </mxCell>
        <mxCell id="8g5TzWJdzASicgmeQdo--110" value="" style="endArrow=none;html=1;rounded=0;entryX=1;entryY=0.5;entryDx=0;entryDy=0;exitX=0;exitY=0.5;exitDx=0;exitDy=0;" parent="WIyWlLk6GJQsqaUBKTNV-1" source="8g5TzWJdzASicgmeQdo--108" target="8g5TzWJdzASicgmeQdo--104" edge="1">
          <mxGeometry width="50" height="50" relative="1" as="geometry">
            <mxPoint x="1440" y="410" as="sourcePoint" />
            <mxPoint x="1310" y="390" as="targetPoint" />
          </mxGeometry>
        </mxCell>
        <mxCell id="8g5TzWJdzASicgmeQdo--111" value="&lt;font style=&quot;font-size: 9px;&quot;&gt;Vertical&lt;/font&gt;" style="ellipse;whiteSpace=wrap;html=1;" parent="WIyWlLk6GJQsqaUBKTNV-1" vertex="1">
          <mxGeometry x="1450" y="450" width="60" height="40" as="geometry" />
        </mxCell>
        <mxCell id="8g5TzWJdzASicgmeQdo--112" value="" style="endArrow=none;html=1;rounded=0;entryX=1;entryY=1;entryDx=0;entryDy=0;exitX=0.057;exitY=0.261;exitDx=0;exitDy=0;exitPerimeter=0;" parent="WIyWlLk6GJQsqaUBKTNV-1" source="8g5TzWJdzASicgmeQdo--111" target="8g5TzWJdzASicgmeQdo--104" edge="1">
          <mxGeometry width="50" height="50" relative="1" as="geometry">
            <mxPoint x="1440" y="480" as="sourcePoint" />
            <mxPoint x="1490" y="430" as="targetPoint" />
          </mxGeometry>
        </mxCell>
        <mxCell id="8g5TzWJdzASicgmeQdo--113" value="CALIFICACIONES" style="rounded=0;whiteSpace=wrap;html=1;fillColor=#d5e8d4;gradientColor=#97d077;strokeColor=#82b366;" parent="WIyWlLk6GJQsqaUBKTNV-1" vertex="1">
          <mxGeometry x="1810" y="519" width="120" height="60" as="geometry" />
        </mxCell>
        <mxCell id="8g5TzWJdzASicgmeQdo--114" value="Obtendrá" style="rhombus;whiteSpace=wrap;html=1;" parent="WIyWlLk6GJQsqaUBKTNV-1" vertex="1">
          <mxGeometry x="1630" y="509" width="80" height="80" as="geometry" />
        </mxCell>
        <mxCell id="8g5TzWJdzASicgmeQdo--115" value="" style="endArrow=none;html=1;rounded=0;entryX=1;entryY=0.5;entryDx=0;entryDy=0;exitX=0;exitY=0.5;exitDx=0;exitDy=0;" parent="WIyWlLk6GJQsqaUBKTNV-1" source="8g5TzWJdzASicgmeQdo--113" target="8g5TzWJdzASicgmeQdo--114" edge="1">
          <mxGeometry width="50" height="50" relative="1" as="geometry">
            <mxPoint x="1930" y="549" as="sourcePoint" />
            <mxPoint x="1980" y="499" as="targetPoint" />
          </mxGeometry>
        </mxCell>
        <mxCell id="8g5TzWJdzASicgmeQdo--116" value="&lt;font size=&quot;1&quot;&gt;&lt;u style=&quot;font-size: 8px;&quot;&gt;Id_Calificacion&lt;/u&gt;&lt;/font&gt;" style="ellipse;whiteSpace=wrap;html=1;" parent="WIyWlLk6GJQsqaUBKTNV-1" vertex="1">
          <mxGeometry x="2010" y="469" width="60" height="40" as="geometry" />
        </mxCell>
        <mxCell id="8g5TzWJdzASicgmeQdo--117" value="&lt;font style=&quot;font-size: 9px;&quot;&gt;Id_Proyecto&lt;/font&gt;" style="ellipse;whiteSpace=wrap;html=1;" parent="WIyWlLk6GJQsqaUBKTNV-1" vertex="1">
          <mxGeometry x="2010" y="516" width="60" height="40" as="geometry" />
        </mxCell>
        <mxCell id="8g5TzWJdzASicgmeQdo--118" value="" style="endArrow=none;html=1;rounded=0;entryX=1;entryY=0;entryDx=0;entryDy=0;exitX=0;exitY=0.5;exitDx=0;exitDy=0;" parent="WIyWlLk6GJQsqaUBKTNV-1" source="8g5TzWJdzASicgmeQdo--116" target="8g5TzWJdzASicgmeQdo--113" edge="1">
          <mxGeometry width="50" height="50" relative="1" as="geometry">
            <mxPoint x="1720" y="489" as="sourcePoint" />
            <mxPoint x="1770" y="439" as="targetPoint" />
          </mxGeometry>
        </mxCell>
        <mxCell id="8g5TzWJdzASicgmeQdo--119" value="" style="endArrow=none;html=1;rounded=0;entryX=1;entryY=0.25;entryDx=0;entryDy=0;exitX=0;exitY=0.5;exitDx=0;exitDy=0;" parent="WIyWlLk6GJQsqaUBKTNV-1" source="8g5TzWJdzASicgmeQdo--117" target="8g5TzWJdzASicgmeQdo--113" edge="1">
          <mxGeometry width="50" height="50" relative="1" as="geometry">
            <mxPoint x="2000" y="549" as="sourcePoint" />
            <mxPoint x="1870" y="529" as="targetPoint" />
          </mxGeometry>
        </mxCell>
        <mxCell id="8g5TzWJdzASicgmeQdo--120" value="&lt;font style=&quot;font-size: 9px;&quot;&gt;Id_Alumno&lt;/font&gt;" style="ellipse;whiteSpace=wrap;html=1;" parent="WIyWlLk6GJQsqaUBKTNV-1" vertex="1">
          <mxGeometry x="2010" y="563" width="60" height="40" as="geometry" />
        </mxCell>
        <mxCell id="8g5TzWJdzASicgmeQdo--121" value="" style="endArrow=none;html=1;rounded=0;entryX=1.006;entryY=0.57;entryDx=0;entryDy=0;exitX=0.057;exitY=0.261;exitDx=0;exitDy=0;exitPerimeter=0;entryPerimeter=0;" parent="WIyWlLk6GJQsqaUBKTNV-1" source="8g5TzWJdzASicgmeQdo--120" target="8g5TzWJdzASicgmeQdo--113" edge="1">
          <mxGeometry width="50" height="50" relative="1" as="geometry">
            <mxPoint x="2000" y="619" as="sourcePoint" />
            <mxPoint x="2050" y="569" as="targetPoint" />
          </mxGeometry>
        </mxCell>
        <mxCell id="8g5TzWJdzASicgmeQdo--122" value="&lt;font style=&quot;font-size: 9px;&quot;&gt;Calificación&lt;/font&gt;" style="ellipse;whiteSpace=wrap;html=1;" parent="WIyWlLk6GJQsqaUBKTNV-1" vertex="1">
          <mxGeometry x="2010" y="609" width="60" height="40" as="geometry" />
        </mxCell>
        <mxCell id="8g5TzWJdzASicgmeQdo--123" value="" style="endArrow=none;html=1;rounded=0;exitX=1;exitY=1;exitDx=0;exitDy=0;entryX=0;entryY=0.5;entryDx=0;entryDy=0;" parent="WIyWlLk6GJQsqaUBKTNV-1" source="8g5TzWJdzASicgmeQdo--113" target="8g5TzWJdzASicgmeQdo--122" edge="1">
          <mxGeometry width="50" height="50" relative="1" as="geometry">
            <mxPoint x="1700" y="599" as="sourcePoint" />
            <mxPoint x="1750" y="549" as="targetPoint" />
          </mxGeometry>
        </mxCell>
        <mxCell id="8O75yo4gVLLcHUP3qulL-0" value="PROYECTO" style="rounded=0;whiteSpace=wrap;html=1;fillColor=#f5f5f5;gradientColor=#b3b3b3;strokeColor=#666666;" vertex="1" parent="WIyWlLk6GJQsqaUBKTNV-1">
          <mxGeometry x="1810" y="825" width="120" height="60" as="geometry" />
        </mxCell>
        <mxCell id="8O75yo4gVLLcHUP3qulL-1" value="Valorado" style="rhombus;whiteSpace=wrap;html=1;" vertex="1" parent="WIyWlLk6GJQsqaUBKTNV-1">
          <mxGeometry x="1830" y="664.5" width="80" height="80" as="geometry" />
        </mxCell>
        <mxCell id="8O75yo4gVLLcHUP3qulL-2" value="" style="endArrow=none;html=1;rounded=0;exitX=0.5;exitY=0;exitDx=0;exitDy=0;entryX=0.5;entryY=1;entryDx=0;entryDy=0;" edge="1" parent="WIyWlLk6GJQsqaUBKTNV-1" source="8O75yo4gVLLcHUP3qulL-0" target="8O75yo4gVLLcHUP3qulL-1">
          <mxGeometry width="50" height="50" relative="1" as="geometry">
            <mxPoint x="2040" y="770" as="sourcePoint" />
            <mxPoint x="1870" y="750" as="targetPoint" />
          </mxGeometry>
        </mxCell>
        <mxCell id="8O75yo4gVLLcHUP3qulL-3" value="&lt;u&gt;&lt;font style=&quot;font-size: 9px;&quot;&gt;Id_Proyecto&lt;/font&gt;&lt;/u&gt;" style="ellipse;whiteSpace=wrap;html=1;" vertex="1" parent="WIyWlLk6GJQsqaUBKTNV-1">
          <mxGeometry x="1800" y="940" width="60" height="40" as="geometry" />
        </mxCell>
        <mxCell id="8O75yo4gVLLcHUP3qulL-4" value="&lt;div&gt;&lt;font style=&quot;font-size: 9px;&quot;&gt;Proyecto&lt;/font&gt;&lt;/div&gt;" style="ellipse;whiteSpace=wrap;html=1;" vertex="1" parent="WIyWlLk6GJQsqaUBKTNV-1">
          <mxGeometry x="1880" y="940" width="60" height="40" as="geometry" />
        </mxCell>
        <mxCell id="8O75yo4gVLLcHUP3qulL-5" value="" style="endArrow=none;html=1;rounded=0;entryX=0.25;entryY=1;entryDx=0;entryDy=0;exitX=0.5;exitY=0;exitDx=0;exitDy=0;" edge="1" parent="WIyWlLk6GJQsqaUBKTNV-1" source="8O75yo4gVLLcHUP3qulL-3" target="8O75yo4gVLLcHUP3qulL-0">
          <mxGeometry width="50" height="50" relative="1" as="geometry">
            <mxPoint x="1830" y="710" as="sourcePoint" />
            <mxPoint x="1880" y="660" as="targetPoint" />
          </mxGeometry>
        </mxCell>
        <mxCell id="8O75yo4gVLLcHUP3qulL-6" value="" style="endArrow=none;html=1;rounded=0;entryX=0.75;entryY=1;entryDx=0;entryDy=0;exitX=0.5;exitY=0;exitDx=0;exitDy=0;" edge="1" parent="WIyWlLk6GJQsqaUBKTNV-1" source="8O75yo4gVLLcHUP3qulL-4" target="8O75yo4gVLLcHUP3qulL-0">
          <mxGeometry width="50" height="50" relative="1" as="geometry">
            <mxPoint x="2110" y="770" as="sourcePoint" />
            <mxPoint x="1980" y="750" as="targetPoint" />
          </mxGeometry>
        </mxCell>
        <mxCell id="8O75yo4gVLLcHUP3qulL-9" value="" style="endArrow=none;html=1;rounded=0;entryX=0;entryY=0.5;entryDx=0;entryDy=0;exitX=1;exitY=0.5;exitDx=0;exitDy=0;" edge="1" parent="WIyWlLk6GJQsqaUBKTNV-1" source="8g5TzWJdzASicgmeQdo--3" target="8g5TzWJdzASicgmeQdo--105">
          <mxGeometry width="50" height="50" relative="1" as="geometry">
            <mxPoint x="1170" y="580" as="sourcePoint" />
            <mxPoint x="1220" y="530" as="targetPoint" />
          </mxGeometry>
        </mxCell>
        <mxCell id="8O75yo4gVLLcHUP3qulL-10" value="" style="endArrow=none;html=1;rounded=0;entryX=0;entryY=0.5;entryDx=0;entryDy=0;exitX=1;exitY=0.75;exitDx=0;exitDy=0;" edge="1" parent="WIyWlLk6GJQsqaUBKTNV-1" source="8g5TzWJdzASicgmeQdo--3" target="8g5TzWJdzASicgmeQdo--92">
          <mxGeometry width="50" height="50" relative="1" as="geometry">
            <mxPoint x="1170" y="580" as="sourcePoint" />
            <mxPoint x="1220" y="530" as="targetPoint" />
          </mxGeometry>
        </mxCell>
        <mxCell id="8O75yo4gVLLcHUP3qulL-11" value="" style="endArrow=none;html=1;rounded=0;exitX=0;exitY=0.5;exitDx=0;exitDy=0;entryX=1;entryY=1;entryDx=0;entryDy=0;" edge="1" parent="WIyWlLk6GJQsqaUBKTNV-1" source="8g5TzWJdzASicgmeQdo--65" target="8g5TzWJdzASicgmeQdo--3">
          <mxGeometry width="50" height="50" relative="1" as="geometry">
            <mxPoint x="1060" y="680" as="sourcePoint" />
            <mxPoint x="1110" y="630" as="targetPoint" />
          </mxGeometry>
        </mxCell>
        <mxCell id="8O75yo4gVLLcHUP3qulL-12" value="" style="endArrow=none;html=1;rounded=0;entryX=0.5;entryY=1;entryDx=0;entryDy=0;" edge="1" parent="WIyWlLk6GJQsqaUBKTNV-1" source="8g5TzWJdzASicgmeQdo--74" target="8g5TzWJdzASicgmeQdo--64">
          <mxGeometry width="50" height="50" relative="1" as="geometry">
            <mxPoint x="1220" y="1240" as="sourcePoint" />
            <mxPoint x="1270" y="1190" as="targetPoint" />
          </mxGeometry>
        </mxCell>
        <mxCell id="8O75yo4gVLLcHUP3qulL-14" value="" style="endArrow=none;html=1;rounded=0;exitX=1;exitY=0.5;exitDx=0;exitDy=0;entryX=0;entryY=0.5;entryDx=0;entryDy=0;" edge="1" parent="WIyWlLk6GJQsqaUBKTNV-1" source="8g5TzWJdzASicgmeQdo--73" target="8g5TzWJdzASicgmeQdo--83">
          <mxGeometry width="50" height="50" relative="1" as="geometry">
            <mxPoint x="1690" y="1160" as="sourcePoint" />
            <mxPoint x="1740" y="1110" as="targetPoint" />
            <Array as="points">
              <mxPoint x="1460" y="1290" />
            </Array>
          </mxGeometry>
        </mxCell>
        <mxCell id="8O75yo4gVLLcHUP3qulL-15" value="" style="endArrow=none;html=1;rounded=0;exitX=0.5;exitY=0;exitDx=0;exitDy=0;entryX=0;entryY=0.5;entryDx=0;entryDy=0;" edge="1" parent="WIyWlLk6GJQsqaUBKTNV-1" source="8g5TzWJdzASicgmeQdo--91" target="8g5TzWJdzASicgmeQdo--114">
          <mxGeometry width="50" height="50" relative="1" as="geometry">
            <mxPoint x="1690" y="690" as="sourcePoint" />
            <mxPoint x="1740" y="640" as="targetPoint" />
            <Array as="points">
              <mxPoint x="1310" y="550" />
            </Array>
          </mxGeometry>
        </mxCell>
        <mxCell id="8O75yo4gVLLcHUP3qulL-16" value="" style="endArrow=none;html=1;rounded=0;entryX=0.5;entryY=1;entryDx=0;entryDy=0;exitX=0.5;exitY=0;exitDx=0;exitDy=0;" edge="1" parent="WIyWlLk6GJQsqaUBKTNV-1" source="8O75yo4gVLLcHUP3qulL-1" target="8g5TzWJdzASicgmeQdo--113">
          <mxGeometry width="50" height="50" relative="1" as="geometry">
            <mxPoint x="1690" y="800" as="sourcePoint" />
            <mxPoint x="1740" y="750" as="targetPoint" />
          </mxGeometry>
        </mxCell>
      </root>
    </mxGraphModel>
  </diagram>
</mxfile>
